<svg width="56" height="56" viewBox="0 0 56 56" fill="none" xmlns="http://www.w3.org/2000/svg">
<g filter="url(#filter0_d_4709_86604)">
<rect x="2" y="1" width="52" height="52" rx="26" fill="#F04438"/>
<path fill-rule="evenodd" clip-rule="evenodd" d="M33.8334 25.3071H35.1934C35.3045 25.3071 35.3601 25.3071 35.4073 25.2883C35.4491 25.2716 35.486 25.2447 35.5148 25.2098C35.5474 25.1703 35.565 25.1169 35.6001 25.0101L36.1038 23.4788C36.2706 22.9719 36.354 22.7185 36.3291 22.4834C36.3071 22.2763 36.2269 22.0799 36.0978 21.9177C35.9514 21.7337 35.7156 21.6142 35.2439 21.3753L28.767 18.0938C28.4858 17.9514 28.3452 17.8802 28.1977 17.8521C28.0671 17.8273 27.9331 17.8273 27.8025 17.8521C27.655 17.8802 27.5144 17.9514 27.2332 18.0938L20.7563 21.3753C20.2846 21.6142 20.0487 21.7337 19.9023 21.9177C19.7733 22.0799 19.693 22.2763 19.6711 22.4834C19.6462 22.7185 19.7296 22.9719 19.8963 23.4788L20.4001 25.0101C20.4352 25.1169 20.4528 25.1703 20.4854 25.2098C20.5141 25.2447 20.5511 25.2716 20.5928 25.2883C20.6401 25.3071 20.6957 25.3071 20.8068 25.3071H22.1668V31.8229H21.8367C21.3579 31.8229 21.1186 31.8229 20.9194 31.9077C20.7437 31.9825 20.5909 32.1034 20.4767 32.258C20.3472 32.4332 20.2892 32.6685 20.173 33.1391L19.9587 34.0079C19.7771 34.7438 19.6863 35.1117 19.7747 35.4015C19.8522 35.6555 20.0189 35.8719 20.2433 36.0097C20.4993 36.1668 20.8737 36.1668 21.6223 36.1668H34.3779C35.1265 36.1668 35.5008 36.1668 35.7568 36.0097C35.9812 35.8719 36.148 35.6555 36.2254 35.4015C36.3138 35.1117 36.223 34.7438 36.0415 34.0079L35.8271 33.1391C35.711 32.6685 35.653 32.4332 35.5235 32.258C35.4093 32.1034 35.2564 31.9825 35.0807 31.9077C34.8816 31.8229 34.6422 31.8229 34.1635 31.8229H33.8334V25.3071ZM32.1668 25.3071H28.8334V31.8229H32.1668V25.3071ZM27.1668 31.8229V25.3071H23.8334V31.8229H27.1668Z" fill="white"/>
</g>
<defs>
<filter id="filter0_d_4709_86604" x="0" y="0" width="56" height="56" filterUnits="userSpaceOnUse" color-interpolation-filters="sRGB">
<feFlood flood-opacity="0" result="BackgroundImageFix"/>
<feColorMatrix in="SourceAlpha" type="matrix" values="0 0 0 0 0 0 0 0 0 0 0 0 0 0 0 0 0 0 127 0" result="hardAlpha"/>
<feOffset dy="1"/>
<feGaussianBlur stdDeviation="1"/>
<feComposite in2="hardAlpha" operator="out"/>
<feColorMatrix type="matrix" values="0 0 0 0 0.0627451 0 0 0 0 0.0941176 0 0 0 0 0.156863 0 0 0 0.04 0"/>
<feBlend mode="normal" in2="BackgroundImageFix" result="effect1_dropShadow_4709_86604"/>
<feBlend mode="normal" in="SourceGraphic" in2="effect1_dropShadow_4709_86604" result="shape"/>
</filter>
</defs>
</svg>
