<svg width="38" height="38" viewBox="0 0 38 38" fill="none" xmlns="http://www.w3.org/2000/svg">
<g clip-path="url(#clip0_402_3678)">
<rect width="18" height="18" transform="translate(10 10)" fill="white" fill-opacity="0.01"/>
<g clip-path="url(#clip1_402_3678)">
<path d="M13.9373 9.99927C14.0864 9.99927 14.2295 10.0585 14.335 10.164C14.4405 10.2695 14.4998 10.4126 14.4998 10.5618V11.1243H23.4998V10.5618C23.4998 10.4126 23.559 10.2695 23.6645 10.164C23.77 10.0585 23.9131 9.99927 24.0623 9.99927C24.2114 9.99927 24.3545 10.0585 24.46 10.164C24.5655 10.2695 24.6248 10.4126 24.6248 10.5618V11.1243H25.7498C26.3465 11.1243 26.9188 11.3613 27.3407 11.7833C27.7627 12.2052 27.9998 12.7775 27.9998 13.3743V25.7493C27.9998 26.346 27.7627 26.9183 27.3407 27.3403C26.9188 27.7622 26.3465 27.9993 25.7498 27.9993H12.2498C11.653 27.9993 11.0807 27.7622 10.6588 27.3403C10.2368 26.9183 9.99976 26.346 9.99976 25.7493V13.3743C9.99976 12.7775 10.2368 12.2052 10.6588 11.7833C11.0807 11.3613 11.653 11.1243 12.2498 11.1243H13.3748V10.5618C13.3748 10.4126 13.434 10.2695 13.5395 10.164C13.645 10.0585 13.7881 9.99927 13.9373 9.99927V9.99927ZM11.1248 14.4993V25.7493C11.1248 26.0476 11.2433 26.3338 11.4543 26.5448C11.6652 26.7557 11.9514 26.8743 12.2498 26.8743H25.7498C26.0481 26.8743 26.3343 26.7557 26.5453 26.5448C26.7562 26.3338 26.8748 26.0476 26.8748 25.7493V14.4993H11.1248Z" fill="white"/>
</g>
</g>
<defs>
<clipPath id="clip0_402_3678">
<rect width="18" height="18" fill="white" transform="translate(10 10)"/>
</clipPath>
<clipPath id="clip1_402_3678">
<rect width="18" height="18" fill="white" transform="translate(10 10)"/>
</clipPath>
</defs>
</svg>
