<svg xmlns="http://www.w3.org/2000/svg" width="14" height="14" viewBox="0 0 14 14" fill="none">
  <g clip-path="url(#clip0_402_2152)">
    <path d="M0.874634 2.18677C0.874634 1.83867 1.01291 1.50483 1.25906 1.25869C1.5052 1.01255 1.83904 0.874268 2.18713 0.874268H4.81213C5.16023 0.874268 5.49407 1.01255 5.74021 1.25869C5.98635 1.50483 6.12463 1.83867 6.12463 2.18677V4.81177C6.12463 5.15986 5.98635 5.4937 5.74021 5.73985C5.49407 5.98599 5.16023 6.12427 4.81213 6.12427H2.18713C1.83904 6.12427 1.5052 5.98599 1.25906 5.73985C1.01291 5.4937 0.874634 5.15986 0.874634 4.81177V2.18677ZM2.18713 1.74927C2.0711 1.74927 1.95982 1.79536 1.87777 1.87741C1.79573 1.95946 1.74963 2.07074 1.74963 2.18677V4.81177C1.74963 4.9278 1.79573 5.03908 1.87777 5.12113C1.95982 5.20317 2.0711 5.24927 2.18713 5.24927H4.81213C4.92817 5.24927 5.03945 5.20317 5.12149 5.12113C5.20354 5.03908 5.24963 4.9278 5.24963 4.81177V2.18677C5.24963 2.07074 5.20354 1.95946 5.12149 1.87741C5.03945 1.79536 4.92817 1.74927 4.81213 1.74927H2.18713ZM7.87463 2.18677C7.87463 1.83867 8.01291 1.50483 8.25906 1.25869C8.5052 1.01255 8.83904 0.874268 9.18713 0.874268H11.8121C12.1602 0.874268 12.4941 1.01255 12.7402 1.25869C12.9864 1.50483 13.1246 1.83867 13.1246 2.18677V4.81177C13.1246 5.15986 12.9864 5.4937 12.7402 5.73985C12.4941 5.98599 12.1602 6.12427 11.8121 6.12427H9.18713C8.83904 6.12427 8.5052 5.98599 8.25906 5.73985C8.01291 5.4937 7.87463 5.15986 7.87463 4.81177V2.18677ZM9.18713 1.74927C9.0711 1.74927 8.95982 1.79536 8.87777 1.87741C8.79573 1.95946 8.74963 2.07074 8.74963 2.18677V4.81177C8.74963 4.9278 8.79573 5.03908 8.87777 5.12113C8.95982 5.20317 9.0711 5.24927 9.18713 5.24927H11.8121C11.9282 5.24927 12.0394 5.20317 12.1215 5.12113C12.2035 5.03908 12.2496 4.9278 12.2496 4.81177V2.18677C12.2496 2.07074 12.2035 1.95946 12.1215 1.87741C12.0394 1.79536 11.9282 1.74927 11.8121 1.74927H9.18713ZM0.874634 9.18677C0.874634 8.83867 1.01291 8.50483 1.25906 8.25869C1.5052 8.01255 1.83904 7.87427 2.18713 7.87427H4.81213C5.16023 7.87427 5.49407 8.01255 5.74021 8.25869C5.98635 8.50483 6.12463 8.83867 6.12463 9.18677V11.8118C6.12463 12.1599 5.98635 12.4937 5.74021 12.7398C5.49407 12.986 5.16023 13.1243 4.81213 13.1243H2.18713C1.83904 13.1243 1.5052 12.986 1.25906 12.7398C1.01291 12.4937 0.874634 12.1599 0.874634 11.8118V9.18677ZM2.18713 8.74927C2.0711 8.74927 1.95982 8.79536 1.87777 8.87741C1.79573 8.95946 1.74963 9.07074 1.74963 9.18677V11.8118C1.74963 11.9278 1.79573 12.0391 1.87777 12.1211C1.95982 12.2032 2.0711 12.2493 2.18713 12.2493H4.81213C4.92817 12.2493 5.03945 12.2032 5.12149 12.1211C5.20354 12.0391 5.24963 11.9278 5.24963 11.8118V9.18677C5.24963 9.07074 5.20354 8.95946 5.12149 8.87741C5.03945 8.79536 4.92817 8.74927 4.81213 8.74927H2.18713ZM7.87463 9.18677C7.87463 8.83867 8.01291 8.50483 8.25906 8.25869C8.5052 8.01255 8.83904 7.87427 9.18713 7.87427H11.8121C12.1602 7.87427 12.4941 8.01255 12.7402 8.25869C12.9864 8.50483 13.1246 8.83867 13.1246 9.18677V11.8118C13.1246 12.1599 12.9864 12.4937 12.7402 12.7398C12.4941 12.986 12.1602 13.1243 11.8121 13.1243H9.18713C8.83904 13.1243 8.5052 12.986 8.25906 12.7398C8.01291 12.4937 7.87463 12.1599 7.87463 11.8118V9.18677ZM9.18713 8.74927C9.0711 8.74927 8.95982 8.79536 8.87777 8.87741C8.79573 8.95946 8.74963 9.07074 8.74963 9.18677V11.8118C8.74963 11.9278 8.79573 12.0391 8.87777 12.1211C8.95982 12.2032 9.0711 12.2493 9.18713 12.2493H11.8121C11.9282 12.2493 12.0394 12.2032 12.1215 12.1211C12.2035 12.0391 12.2496 11.9278 12.2496 11.8118V9.18677C12.2496 9.07074 12.2035 8.95946 12.1215 8.87741C12.0394 8.79536 11.9282 8.74927 11.8121 8.74927H9.18713Z" fill="white"/>
  </g>
  <defs>
    <clipPath id="clip0_402_2152">
      <rect width="14" height="14" fill="white"/>
    </clipPath>
  </defs>
</svg>