<svg xmlns="http://www.w3.org/2000/svg" width="19" height="18" viewBox="0 0 19 18" fill="none">
  <g clip-path="url(#clip0_402_4580)">
    <path d="M9.40015 17.9993C9.99688 17.9993 10.5692 17.7622 10.9911 17.3403C11.4131 16.9183 11.6501 16.346 11.6501 15.7493H7.15015C7.15015 16.346 7.3872 16.9183 7.80916 17.3403C8.23111 17.7622 8.80341 17.9993 9.40015 17.9993ZM9.40015 2.15703L8.50352 2.33815C7.48648 2.54538 6.57227 3.09764 5.91563 3.90148C5.25899 4.70531 4.90026 5.71133 4.90015 6.74928C4.90015 7.45578 4.7494 9.2209 4.38377 10.959C4.20377 11.8219 3.96077 12.7208 3.6379 13.4993H15.1624C14.8395 12.7208 14.5976 11.823 14.4165 10.959C14.0509 9.2209 13.9001 7.45578 13.9001 6.74928C13.8998 5.71153 13.5409 4.70577 12.8843 3.90216C12.2277 3.09856 11.3136 2.54646 10.2968 2.33928L9.40015 2.1559V2.15703ZM16.3976 13.4993C16.6485 14.0021 16.9388 14.4004 17.2751 14.6243H1.52515C1.86152 14.4004 2.15177 14.0021 2.40265 13.4993C3.41515 11.4743 3.77515 7.73928 3.77515 6.74928C3.77515 4.02678 5.71015 1.75428 8.28077 1.23565C8.26507 1.07922 8.28233 0.921242 8.33143 0.771895C8.38054 0.622548 8.4604 0.485151 8.56587 0.368566C8.67134 0.25198 8.80007 0.158794 8.94377 0.0950179C9.08747 0.0312417 9.24293 -0.00170898 9.40015 -0.00170898C9.55736 -0.00170898 9.71283 0.0312417 9.85652 0.0950179C10.0002 0.158794 10.129 0.25198 10.2344 0.368566C10.3399 0.485151 10.4198 0.622548 10.4689 0.771895C10.518 0.921242 10.5352 1.07922 10.5195 1.23565C11.7911 1.49429 12.9342 2.18443 13.7553 3.18921C14.5764 4.194 15.025 5.45167 15.0251 6.74928C15.0251 7.73928 15.3851 11.4743 16.3976 13.4993Z" fill="white"/>
  </g>
  <defs>
    <clipPath id="clip0_402_4580">
      <rect width="18" height="18" fill="white" transform="translate(0.400391)"/>
    </clipPath>
  </defs>
</svg>