<svg xmlns="http://www.w3.org/2000/svg" width="47" height="47" viewBox="0 0 47 47" fill="none">
  <path fill-rule="evenodd" clip-rule="evenodd" d="M47 47V13.6376C47 6.11127 40.8887 0 33.3615 0H0V14.9108C0.435908 14.9673 0.807624 15.1321 1.28664 15.3476C1.27705 15.27 1.27227 15.1924 1.27323 15.1158C1.28855 13.855 2.53687 12.3864 3.3943 11.5749C3.74686 11.2406 4.22875 10.9187 4.68669 11.0835C4.84311 11.1402 4.97171 11.2475 5.10087 11.3552C5.19401 11.4328 5.28744 11.5107 5.3918 11.5701C5.94937 11.8853 6.64202 11.6085 7.21972 11.3316C8.03563 10.939 8.85153 10.5467 9.66744 10.1544C10.4764 9.76543 11.2853 9.37647 12.0942 8.98728C12.7236 8.68455 13.513 8.3933 14.0725 8.81196C14.449 9.09266 14.5659 9.59947 14.6234 10.066C14.7546 11.1429 14.7038 12.2417 14.471 13.3022C15.2432 13.3731 15.8525 14.0658 16.0298 14.8198C16.206 15.5737 16.0269 16.3679 15.751 17.0913C15.1819 18.58 14.221 19.8676 13.1585 21.068C13.3779 21.2338 13.5944 21.4034 13.8081 21.5777C13.9786 21.7166 14.1463 21.8594 14.313 22.0031C15.1905 21.046 16.1591 20.1713 17.1995 19.3944C17.7753 18.9633 18.3741 18.5628 18.992 18.1939C19.0753 18.1432 19.2468 18.0665 19.4538 17.9755C20.064 17.7082 20.7605 17.8107 21.298 18.2035C21.434 18.3032 21.5902 18.375 21.7521 18.4076C22.3058 18.5187 22.8672 18.307 23.3932 18.101C26.2692 16.9753 29.1739 15.9234 32.1036 14.9462C32.3479 14.8648 32.6161 14.8658 32.8518 14.9692C33.2954 15.1627 33.2887 15.5632 33.2503 15.9205C33.0559 17.7188 32.2875 19.4499 31.0842 20.8008L33.898 22.1018C34.125 22.2071 34.3243 22.3681 34.4594 22.5779C34.8953 23.2619 34.3483 23.8664 33.853 24.311C32.4628 25.5574 31.0383 26.7635 29.5792 27.9285C29.263 28.1805 28.9124 28.511 28.9756 28.9105C28.9953 29.0313 29.0524 29.1409 29.1096 29.2506C29.1667 29.3601 29.2238 29.4696 29.2439 29.5907C29.2927 29.8838 29.1145 30.1617 28.9392 30.4021C27.8701 31.8708 26.6284 33.213 25.2489 34.3942C25.5602 34.8225 25.8649 35.2536 26.1628 35.6895C26.1796 35.6799 26.1964 35.6706 26.2132 35.6612C26.2299 35.6519 26.2467 35.6425 26.2634 35.633C28.1287 34.5964 30.0764 33.5866 32.1975 33.3471C32.9677 33.2599 33.7811 33.2858 34.467 33.6451C35.153 34.0053 35.6703 34.7688 35.5467 35.5333C36.6312 35.5745 37.7081 35.7987 38.7178 36.1963C39.1547 36.3678 39.6155 36.6082 39.7947 37.0432C40.0591 37.6899 39.5801 38.3816 39.1288 38.9152C37.9667 40.2928 36.8037 41.6705 35.6406 43.0481C35.2277 43.5377 34.7861 44.1393 34.9528 44.7572C34.9839 44.8743 35.036 44.9851 35.088 45.0955C35.1594 45.247 35.2304 45.3978 35.2459 45.563C35.2919 46.0468 34.8598 46.4328 34.4479 46.6906C34.2889 46.7902 34.1116 46.8946 33.921 47H47Z" fill="#5BC47B"/>
</svg>